<svg width="34" height="40" viewBox="0 0 34 40" xmlns="http://www.w3.org/2000/svg"><title>stuart-logo</title><g fill="#FFF" fill-rule="evenodd"><path d="M32.417 9.303c-.251 0-.51.07-.783.213l-14.63 8.936-13.221-7.896 13.235-7.904.433.249a.75.75 0 0 1 .12.056L22.79 5.98c.521.283.928.294 1.326.058l.864-.494c.212-.126.337-.303.353-.498.014-.17-.061-.334-.227-.481l.003-.005a.965.965 0 0 0-.135-.095l-4.914-2.83-.002.002L17.707.28C17.38.09 16.855.054 16.46.19a1.234 1.234 0 0 0-.231.104L8.483 4.948l.004.006L1.301 9.25c-.518.337-.808.783-.82 1.258-.01.442.235.865.7 1.197l15.075 9.067c.398.238 1.077.237 1.475-.002l13.633-8.26v15.576L16.97 36.68 2.577 28.086l-.002-.553a.882.882 0 0 1-.012-.141v-4.757c0-.474-.229-.88-.606-1.084a1.168 1.168 0 0 0-.133-.095l-.704-.42a.906.906 0 0 0-.16-.075c-.348-.122-.662.063-.735.43l-.004.018.003 7.365c.071.45.369.911.722 1.123l15.272 9.112c.2.12.46.185.736.185.278 0 .54-.066.74-.186l15.27-9.142c.413-.247.737-.827.737-1.318l.004-17.88c0-.67-.482-1.365-1.288-1.365"/><path d="M15.228 29.833l-3.345-1.93c-.35-.202-.699.018-.699.42v1.325c0 .349.23.755.526.927l3.347 1.947a.545.545 0 0 0 .278.082.388.388 0 0 0 .313-.15.558.558 0 0 0 .107-.35v-1.346c0-.349-.232-.755-.527-.925M15.755 25.844c0-.348-.233-.754-.529-.923L9.9 21.883c-.35-.2-.7.02-.7.422v1.327c0 .349.233.754.529.923l5.328 3.039c.092.052.186.08.275.08a.393.393 0 0 0 .315-.152c.07-.09.109-.211.109-.352v-1.326"/></g></svg>